<svg id="Capa_1" fill="white" enable-background="new 0 0 512 512" height="512" viewBox="0 0 512 512" width="512" xmlns="http://www.w3.org/2000/svg"><g><path d="m196.04 190 59.96-28.402 59.96 28.402h70.079l-93.239-44.166c11.167-10.073 18.2-24.646 18.2-40.834 0-25.129-16.939-46.376-40-52.921v-22.079h15c8.284 0 15-6.716 15-15s-6.716-15-15-15h-60c-8.284 0-15 6.716-15 15s6.716 15 15 15h15v35c0 8.284 6.716 15 15 15 13.785 0 25 11.215 25 25s-11.215 25-25 25-25-11.215-25-25c0-8.284-6.716-15-15-15s-15 6.716-15 15c0 16.188 7.033 30.761 18.199 40.834l-93.238 44.166z"/><path d="m505.132 297.604c4.281-2.762 6.868-7.509 6.868-12.604v-50c0-8.284-6.716-15-15-15h-482c-8.284 0-15 6.716-15 15v50c0 5.095 2.587 9.842 6.868 12.604l24.132 15.569v105.653l-24.132 15.57c-4.281 2.762-6.868 7.509-6.868 12.604v50c0 8.284 6.716 15 15 15h482c8.284 0 15-6.716 15-15v-50c0-5.095-2.587-9.842-6.868-12.604l-24.132-15.569v-105.654zm-405.561 139.396c0 8.284-6.716 15-15 15s-15-6.716-15-15v-142c0-8.284 6.716-15 15-15s15 6.716 15 15zm68.572 0c0 8.284-6.716 15-15 15s-15-6.716-15-15v-142c0-8.284 6.716-15 15-15s15 6.716 15 15zm68.571 0c0 8.284-6.716 15-15 15s-15-6.716-15-15v-142c0-8.284 6.716-15 15-15s15 6.716 15 15zm68.572 0c0 8.284-6.716 15-15 15s-15-6.716-15-15v-142c0-8.284 6.716-15 15-15s15 6.716 15 15zm68.571 0c0 8.284-6.716 15-15 15s-15-6.716-15-15v-142c0-8.284 6.716-15 15-15s15 6.716 15 15zm68.572 0c0 8.284-6.716 15-15 15s-15-6.716-15-15v-142c0-8.284 6.716-15 15-15s15 6.716 15 15z"/></g></svg>