<svg id="Capa_1" enable-background="new 0 0 512 512" height="512" viewBox="0 0 512 512" fill="white" width="512" xmlns="http://www.w3.org/2000/svg"><g><path d="m256 130c-24.813 0-45 20.187-45 45s20.187 45 45 45 45-20.187 45-45-20.187-45-45-45zm0 60c-8.284 0-15-6.716-15-15s6.716-15 15-15 15 6.716 15 15-6.716 15-15 15z"/><path d="m379.724 51.152c-33.039-32.97-76.977-51.137-123.729-51.152-46.742.015-90.68 18.182-123.719 51.152-33.066 32.998-51.276 76.904-51.276 123.627 0 27.782 6.688 55.434 19.343 79.965 12.228 23.705 30.061 44.655 51.571 60.585 12.129 8.982 19.086 22.12 19.086 36.045v8.626h170v-8.626c0-13.925 6.957-27.062 19.086-36.045 21.511-15.93 39.344-36.88 51.571-60.585 12.655-24.531 19.343-52.182 19.343-79.965 0-46.723-18.21-90.629-51.276-123.627zm-18.724 123.848c0 8.284-6.716 15-15 15h-16.51c-1.949 9.562-5.731 18.46-10.948 26.33l11.704 11.704c5.858 5.858 5.858 15.355 0 21.213s-15.355 5.858-21.213 0l-11.704-11.704c-7.869 5.218-16.768 9-26.33 10.948v16.509c0 8.284-6.716 15-15 15-8.284 0-15-6.716-15-15v-16.51c-9.562-1.949-18.46-5.731-26.33-10.948l-11.704 11.704c-5.858 5.858-15.355 5.858-21.213 0s-5.858-15.355 0-21.213l11.704-11.704c-5.218-7.869-9-16.768-10.948-26.33h-16.508c-8.284 0-15-6.716-15-15 0-8.284 6.716-15 15-15h16.51c1.949-9.562 5.731-18.46 10.948-26.33l-11.704-11.704c-5.858-5.858-5.858-15.355 0-21.213s15.355-5.858 21.213 0l11.704 11.704c7.869-5.218 16.768-9 26.33-10.948v-16.508c0-8.284 6.716-15 15-15 8.284 0 15 6.716 15 15v16.51c9.562 1.949 18.46 5.731 26.33 10.948l11.704-11.704c5.858-5.858 15.355-5.858 21.213 0s5.858 15.355 0 21.213l-11.704 11.704c5.218 7.869 9 16.768 10.948 26.33h16.508c8.284-.001 15 6.715 15 14.999z"/><path d="m171 467c0 24.813 20.187 45 45 45h80c24.813 0 45-20.187 45-45v-16h-170z"/><path d="m171 390h170v31h-170z"/><path d="m166 421c-8.284 0-15 6.716-15 15s6.716 15 15 15h5v-30z"/><path d="m346 451c8.284 0 15-6.716 15-15s-6.716-15-15-15h-5v30z"/><path d="m166 360c-8.284 0-15 6.716-15 15s6.716 15 15 15h5v-30z"/><path d="m346 390c8.284 0 15-6.716 15-15s-6.716-15-15-15h-5v30z"/></g></svg>